<svg id="visual" viewBox="0 0 900 600" width="900" height="600" xmlns="http://www.w3.org/2000/svg" xmlns:xlink="http://www.w3.org/1999/xlink" version="1.1"><rect x="0" y="0" width="900" height="600" fill="#000000"></rect><defs><linearGradient id="grad1_0" x1="33.3%" y1="0%" x2="100%" y2="100%"><stop offset="20%" stop-color="#000000" stop-opacity="1"></stop><stop offset="80%" stop-color="#000000" stop-opacity="1"></stop></linearGradient></defs><defs><linearGradient id="grad2_0" x1="0%" y1="0%" x2="66.7%" y2="100%"><stop offset="20%" stop-color="#000000" stop-opacity="1"></stop><stop offset="80%" stop-color="#000000" stop-opacity="1"></stop></linearGradient></defs><g transform="translate(900, 0)"><path d="M0 486.7C-68.9 485 -137.9 483.3 -186.3 449.7C-234.7 416.1 -262.6 350.5 -302.6 302.6C-342.7 254.8 -395 224.7 -427.8 177.2C-460.5 129.7 -473.6 64.8 -486.7 0L0 0Z" fill="#117956"></path></g><g transform="translate(0, 600)"><path d="M0 -486.7C66.6 -482.6 133.1 -478.4 186.3 -449.7C239.4 -421 279.1 -367.7 320.3 -320.3C361.6 -273 404.4 -231.5 432.4 -179.1C460.4 -126.7 473.6 -63.3 486.7 0L0 0Z" fill="#117956"></path></g></svg>